# xmcd
#
# Track frame offsets:
# 150
# 2902
# 17237
# 33988
# 54504
# 73130
# 97694
# 113383
# 118973
# 131819
# 143569
# 167250
# 185694
# 205392
# 226410
# 242460
# 242910
# 243360
# 243810
# 260559
# 261009
# 261459
#
# Disc length: 3722 seconds
#
# Revision: 0
# Processed by: cddbd v1.5.1PL0 Copyright (c) Steve Scherf et al.
# Submitted via: Audion 3.0.2 (http://www.panic.com/audion/)
#
DISCID=300e8816
DTITLE=Zion I - Deep Water Slang 2.0
DYEAR=1900
DGENRE=
TTITLE0=Jahmbo
TTITLE1=The Drill
TTITLE2=Warriors Dance (feat. Pep Love) 
TTITLE3=Finger Paint (feat. Susie Suh and Dust)
TTITLE4=Kharma
TTITLE5=Flow (feat. the Grouch)
TTITLE6=A.E.I.O.U. 
TTITLE7=Deepwaterslang 
TTITLE8=Cheeba Cheeba (feat. Aceyalone) 
TTITLE9=Kick Snare
TTITLE10=Sorry
TTITLE11=Le, Le, Le (feat. Dust and Deuce Eclipse) 
TTITLE12=Boom Bip (feat. Goapele)
TTITLE13=Mind Blow 
TTITLE14=Dune 
TTITLE15=Untitled
TTITLE16=Untitled
TTITLE17=Untitled
TTITLE18=Untitled
TTITLE19=Untitled
TTITLE20=Untitled
TTITLE21=Untitled
EXTD=
EXTT0=
EXTT1=
EXTT2=
EXTT3=
EXTT4=
EXTT5=
EXTT6=
EXTT7=
EXTT8=
EXTT9=
EXTT10=
EXTT11=
EXTT12=
EXTT13=
EXTT14=
EXTT15=
EXTT16=
EXTT17=
EXTT18=
EXTT19=
EXTT20=
EXTT21=
PLAYORDER=
